HIERARCHY
ROOT Hips
{
	OFFSET 47.002701 -19.860815 95.624397
	CHANNELS 6 Xposition Yposition Zposition Xrotation Yrotation Zrotation
	JOINT spine
	{
		OFFSET 0.000000 -0.458069 7.965683
		CHANNELS 3 Xrotation Yrotation Zrotation
		JOINT spine1
		{
			OFFSET 0.000000 -0.000002 10.243103
			CHANNELS 3 Xrotation Yrotation Zrotation
			JOINT spine2
			{
				OFFSET 0.000000 -0.000002 9.814751
				CHANNELS 3 Xrotation Yrotation Zrotation
				JOINT Neck
				{
					OFFSET 0.000000 -1.201384 25.198593
					CHANNELS 3 Xrotation Yrotation Zrotation
					JOINT Head
					{
						OFFSET 0.000000 0.000000 7.613144
						CHANNELS 3 Xrotation Yrotation Zrotation
						End Site
						{
							OFFSET 0.000000 6.077326 18.428101
						}
					}
				}
				JOINT RightShoulder
				{
					OFFSET -4.132698 0.575451 10.599197
					CHANNELS 3 Xrotation Yrotation Zrotation
					JOINT RightArm
					{
						OFFSET 0.000000 -0.000004 13.901794
						CHANNELS 3 Xrotation Yrotation Zrotation
						JOINT RightArmRoll
						{
							OFFSET 0.000000 0.000000 7.017883
							CHANNELS 3 Xrotation Yrotation Zrotation
							JOINT RightForeArm
							{
								OFFSET 0.000000 -0.000004 20.440598
								CHANNELS 3 Xrotation Yrotation Zrotation
								JOINT RightForeArmRoll
								{
									OFFSET 0.000000 -0.000002 7.875168
									CHANNELS 3 Xrotation Yrotation Zrotation
									JOINT RightHand
									{
										OFFSET 0.000000 -0.000002 15.803696
										CHANNELS 3 Xrotation Yrotation Zrotation
										End Site
										{
											OFFSET 0.000000 0.000000 0.100006
										}
									}
								}
							}
						}
					}
				}
				JOINT LeftShoulder
				{
					OFFSET 4.132698 0.575451 10.599197
					CHANNELS 3 Xrotation Yrotation Zrotation
					JOINT LeftArm
					{
						OFFSET 0.000000 -0.000004 13.901794
						CHANNELS 3 Xrotation Yrotation Zrotation
						JOINT LeftArmRoll
						{
							OFFSET 0.000000 0.000000 7.017883
							CHANNELS 3 Xrotation Yrotation Zrotation
							JOINT LeftForeArm
							{
								OFFSET 0.000000 -0.000004 20.440598
								CHANNELS 3 Xrotation Yrotation Zrotation
								JOINT LeftForeArmRoll
								{
									OFFSET 0.000000 -0.000002 7.875168
									CHANNELS 3 Xrotation Yrotation Zrotation
									JOINT LeftHand
									{
										OFFSET 0.000000 -0.000002 15.803696
										CHANNELS 3 Xrotation Yrotation Zrotation
										End Site
										{
											OFFSET 0.000000 0.000000 0.100006
										}
									}
								}
							}
						}
					}
				}
			}
		}
	}
	JOINT RightUpLeg
	{
		OFFSET -7.060478 1.086100 -1.294701
		CHANNELS 3 Xrotation Yrotation Zrotation
		JOINT RightUpLegRoll
		{
			OFFSET 0.000000 -0.000004 18.530800
			CHANNELS 3 Xrotation Yrotation Zrotation
			JOINT RightLeg
			{
				OFFSET 0.000000 0.000004 -22.947601
				CHANNELS 3 Xrotation Yrotation Zrotation
				JOINT RightLegRoll
				{
					OFFSET 0.000000 -0.000004 23.022598
					CHANNELS 3 Xrotation Yrotation Zrotation
					JOINT RightFoot
					{
						OFFSET 0.000000 -0.000002 19.162498
						CHANNELS 3 Xrotation Yrotation Zrotation
						JOINT RightToeBase
						{
							OFFSET 0.000000 -0.000004 16.018799
							CHANNELS 3 Xrotation Yrotation Zrotation
							End Site
							{
								OFFSET 0.006790 0.894205 7.757812
							}
						}
					}
				}
			}
		}
	}
	JOINT LeftUpLeg
	{
		OFFSET 7.060478 1.086100 -1.294701
		CHANNELS 3 Xrotation Yrotation Zrotation
		JOINT LeftUpLegRoll
		{
			OFFSET 0.000000 -0.000004 18.530899
			CHANNELS 3 Xrotation Yrotation Zrotation
			JOINT LeftLeg
			{
				OFFSET 0.000000 -0.000004 22.947495
				CHANNELS 3 Xrotation Yrotation Zrotation
				JOINT LeftLegRoll
				{
					OFFSET 0.000000 -0.000004 23.235504
					CHANNELS 3 Xrotation Yrotation Zrotation
					JOINT LeftFoot
					{
						OFFSET 0.000000 -0.000002 18.949600
						CHANNELS 3 Xrotation Yrotation Zrotation
						JOINT LeftToeBase
						{
							OFFSET 0.000000 -0.000004 16.018799
							CHANNELS 3 Xrotation Yrotation Zrotation
							End Site
							{
								OFFSET -0.030430 0.894205 7.757812
							}
						}
					}
				}
			}
		}
	}
}
MOTION
Frames: 5
Frame Time: 0.041667
47.159801 -13.286016 95.705597 -2.057998 1.482394 0.632748 -1.674636 -0.507011 0.060798 0.654061 -0.997237 0.124675 2.299247 -0.995727 0.136588 21.023274 0.823288 -0.962889 -4.272221 -1.854237 -0.820847 7.135940 -70.976232 6.392856 -50.432761 -113.745606 -27.287699 -0.000000 0.000000 -0.000000 0.022952 -2.653760 -0.080116 -0.000001 0.000006 -3.021040 -5.000149 -7.999772 0.000044 5.398555 73.123179 -4.189775 -51.473071 116.049873 32.379133 0.000005 -0.000007 0.000002 1.975302 3.450504 -0.321195 -0.000004 -0.000017 3.001750 -5.000191 7.999652 -0.000035 4.178783 -177.643289 -2.883830 -179.999991 0.000005 -1.166004 176.085733 -2.058190 -0.566792 0.000002 0.000002 0.039755 69.069154 6.943426 1.976373 25.938791 -7.345430 0.719015 1.590295 173.699401 -0.012346 -0.000005 0.000011 -1.176820 -7.432709 1.850709 0.346846 -0.000006 -0.000003 -0.180833 71.264459 -6.896580 -1.958174 25.504210 7.342172 -0.072863 
47.154400 -13.290516 95.689896 -2.061602 1.483120 0.624502 -1.671686 -0.507030 0.061729 0.659995 -0.997949 0.125058 2.305179 -0.996424 0.136980 20.993686 0.825980 -0.958483 -4.241081 -1.847870 -0.816493 7.127216 -70.963589 6.385217 -50.422949 -113.765345 -27.263754 0.000001 -0.000001 -0.000001 0.022950 -2.631539 -0.080756 -0.000000 0.000007 -3.021088 -5.000154 -7.999769 0.000042 5.370585 73.111267 -4.161094 -51.451019 116.046034 32.372303 0.000003 -0.000007 0.000002 2.000877 3.465290 -0.321542 -0.000000 -0.000017 3.001747 -5.000191 7.999651 -0.000034 4.176106 -177.638290 -2.869827 -179.999991 0.000005 -1.166004 176.075774 -2.074125 -0.566249 0.000002 0.000002 0.039811 69.065548 6.943378 1.976391 25.944747 -7.345440 0.727979 1.579898 173.698377 -0.014781 -0.000005 0.000011 -1.176820 -7.467292 1.852030 0.347961 -0.000006 -0.000004 -0.181366 71.280940 -6.896350 -1.958118 25.505424 7.342173 -0.074832 
47.142101 -13.303020 95.698997 -2.065601 1.483986 0.616214 -1.668696 -0.507061 0.062740 0.666009 -0.998681 0.125488 2.311190 -0.997140 0.137418 20.963995 0.828516 -0.954053 -4.209406 -1.841343 -0.812135 7.117482 -70.951281 6.376431 -50.416061 -113.784961 -27.241567 0.000001 -0.000000 0.000001 0.022952 -2.607890 -0.081478 -0.000001 0.000007 -3.021170 -5.000153 -7.999771 0.000044 5.342171 73.099348 -4.131932 -51.427814 116.043029 32.364100 0.000002 -0.000007 0.000001 2.026512 3.479929 -0.321910 0.000000 -0.000017 3.001749 -5.000191 7.999651 -0.000035 4.174288 -177.634287 -2.855430 -179.999991 0.000005 -1.166004 176.066431 -2.091068 -0.565759 0.000002 0.000002 0.039850 69.061545 6.943416 1.976350 25.950810 -7.345436 0.737002 1.570025 173.696355 -0.017611 -0.000005 0.000011 -1.176820 -7.501898 1.853549 0.349074 -0.000006 -0.000004 -0.181885 71.297736 -6.896108 -1.958136 25.506529 7.342178 -0.076728 
47.143600 -13.303716 95.689690 -2.069875 1.484961 0.607897 -1.665676 -0.507098 0.063805 0.672079 -0.999426 0.125949 2.317262 -0.997868 0.137890 20.934403 0.830944 -0.949609 -4.177377 -1.834706 -0.807778 7.106944 -70.939014 6.366745 -50.408121 -113.805520 -27.217112 0.000002 -0.000001 -0.000000 0.022952 -2.583240 -0.082259 -0.000001 0.000007 -3.021260 -5.000150 -7.999772 0.000043 5.313490 73.087450 -4.102474 -51.406367 116.039491 32.357813 0.000002 -0.000007 0.000003 2.052179 3.494463 -0.322303 -0.000001 -0.000017 3.001750 -5.000190 7.999650 -0.000035 4.173062 -177.629301 -2.840617 -179.999991 0.000005 -1.166004 176.057511 -2.108000 -0.566241 0.000002 0.000002 0.039878 69.057427 6.943411 1.976407 25.956771 -7.345448 0.746047 1.560524 173.694320 -0.020699 -0.000005 0.000011 -1.176820 -7.536514 1.855206 0.350188 -0.000006 -0.000003 -0.182395 71.314647 -6.895884 -1.958056 25.507741 7.342176 -0.078606 
47.142101 -13.306517 95.689392 -2.074308 1.485986 0.599563 -1.662637 -0.507138 0.064902 0.678180 -1.000180 0.126430 2.323364 -0.998605 0.138380 20.904813 0.833306 -0.945155 -4.145133 -1.827989 -0.803424 7.096034 -70.926959 6.356627 -50.402452 -113.825656 -27.194658 -0.000002 0.000000 0.000003 0.022951 -2.558010 -0.083067 -0.000002 0.000007 -3.021360 -5.000153 -7.999770 0.000044 5.284612 73.075559 -4.072800 -51.383438 116.036663 32.349849 0.000001 -0.000007 0.000001 2.077878 3.508947 -0.322709 -0.000001 -0.000017 3.001750 -5.000192 7.999650 -0.000033 4.172186 -177.624315 -2.825621 -179.999991 0.000005 -1.166004 176.048836 -2.125939 -0.565805 0.000002 0.000002 0.039900 69.053103 6.943429 1.976381 25.962835 -7.345454 0.755115 1.551233 173.692298 -0.023933 -0.000005 0.000011 -1.176820 -7.571138 1.856940 0.351304 -0.000006 -0.000003 -0.182900 71.331668 -6.895622 -1.958158 25.508854 7.342170 -0.080448 
